{"title":"Ransom-720p MP4 AAC x264 BRRip 1996-CC","uid":8116583,"size":3250638462,"categoryP":"video","categoryS":"hd___movies","magnet":"?xt=urn:btih:9f0b1a3805f37a1228421c202045af9f4b48da5c&amp;dn=Ransom-720p+MP4+AAC+x264+BRRip+1996-CC&amp;tr=udp%3A%2F%2Ftracker.openbittorrent.com%3A80&amp;tr=udp%3A%2F%2Fopen.demonii.com%3A1337&amp;tr=udp%3A%2F%2Ftracker.coppersurfer.tk%3A6969&amp;tr=udp%3A%2F%2Fexodus.desync.com%3A6969","seeders":1,"leechers":4,"uploader":"Caveman44","files":-1,"time":1360316335,"description":" &lt;a href=&quot;http://www.imdb.com/title/tt0117438&quot; rel=&quot;nofollow&quot; target=&quot;_NEW&quot;&gt;http://www.imdb.com/title/tt0117438&lt;/a&gt;\n\nSource: Ransom.1996.720p.BluRay.x264-HD4U\n Thanks!\n\nSubs: Bulgarian, Danish, Dutch, English, Finnish, French, Greek, Hebrew and Slovenian.\n\nSample and Screens included.\n\nGeneral\nComplete name                            : Ransom-720p MP4 AAC x264 BRRip 1996-CC.mp4\nFormat                                   : MPEG-4\nFormat profile                           : Base Media\nCodec ID                                 : isom\nFile size                                : 2.99 GiB\nDuration                                 : 2h 1mn\nOverall bit rate mode                    : Variable\nOverall bit rate                         : 3 527 Kbps\nEncoded date                             : UTC 2013-01-26 09:21:28\n\nVideo\nID                                       : 1\nFormat                                   : AVC\nFormat/Info                              : Advanced Video Codec\nFormat profile                           : &lt;a class=&quot;__cf_email__&quot; href=&quot;/cdn-cgi/l/email-protection&quot; data-cfemail=&quot;cd85a4aaa58d81f9e3fc&quot;&gt;[email&amp;#160;protected]&lt;/a&gt;&lt;script cf-hash='f9e31' type=&quot;text/javascript&quot;&gt;\n/* &lt;![CDATA[ */!function(){try{var t=&quot;currentScript&quot;in document?document.currentScript:function(){for(var t=document.getElementsByTagName(&quot;script&quot;),e=t.length;e--;)if(t[e].getAttribute(&quot;cf-hash&quot;))return t[e]}();if(t&amp;&amp;t.previousSibling){var e,r,n,i,c=t.previousSibling,a=c.getAttribute(&quot;data-cfemail&quot;);if(a){for(e=&quot;&quot;,r=parseInt(a.substr(0,2),16),n=2;a.length-n;n+=2)i=parseInt(a.substr(n,2),16)^r,e+=String.fromCharCode(i);e=document.createTextNode(e),c.parentNode.replaceChild(e,c)}}}catch(u){}}();/* ]]&gt; */&lt;/script&gt;\nFormat settings, CABAC                   : Yes\nFormat settings, ReFrames                : 5 frames\nCodec ID                                 : avc1\nCodec ID/Info                            : Advanced Video Coding\nDuration                                 : 2h 1mn\nBit rate                                 : 3 191 Kbps\nMaximum bit rate                         : 38.1 Mbps\nWidth                                    : 1 280 pixels\nHeight                                   : 696 pixels\nDisplay aspect ratio                     : 1.85:1\nFrame rate mode                          : Variable\nFrame rate                               : 23.976 fps\nMinimum frame rate                       : 19.048 fps\nMaximum frame rate                       : 25.000 fps\nColor space                              : YUV\nChroma subsampling                       : 4:2:0\nBit depth                                : 8 bits\nScan type                                : Progressive\nBits/(Pixel*Frame)                       : 0.149\nStream size                              : 2.66 GiB (89%)\nWriting library                          : x264 core 112\n\nAudio\nID                                       : 2\nFormat                                   : AAC\nFormat/Info                              : Advanced Audio Codec\nFormat profile                           : LC\nCodec ID                                 : 40\nDuration                                 : 2h 1mn\nBit rate mode                            : Variable\nBit rate                                 : 384 Kbps\nMaximum bit rate                         : 557 Kbps\nChannel(s)                               : 6 channels\nChannel positions                        : Front: L C R, Side: L R, LFE\nSampling rate                            : 48.0 KHz\nCompression mode                         : Lossy\nDelay relative to video                  : 83ms\nStream size                              : 333 MiB (11%)\nLanguage                                 : English\n\nEnjoy...\n\nRequested by majmi\n\nComing soon: Apocalypse Hitler, Ikiru, Cruel Intentions and more...","torrent":{"xt":"urn:btih:9f0b1a3805f37a1228421c202045af9f4b48da5c","amp;dn":"Ransom-720p+MP4+AAC+x264+BRRip+1996-CC","amp;tr":["udp%3A%2F%2Ftracker.openbittorrent.com%3A80","udp%3A%2F%2Fopen.demonii.com%3A1337","udp%3A%2F%2Ftracker.coppersurfer.tk%3A6969","udp%3A%2F%2Fexodus.desync.com%3A6969"],"infoHash":"9f0b1a3805f37a1228421c202045af9f4b48da5c","infoHashBuffer":{"type":"Buffer","data":[159,11,26,56,5,243,122,18,40,66,28,32,32,69,175,159,75,72,218,92]},"announce":[],"urlList":[]}}